# xmcd
#
# Track frame offsets: 
#        150
#        11890
#        23765
#        37672
#        50715
#        61675
#        72690
#        83662
#        94793
#        104364
#        114057
#        125515
#        134638
#        144150
#        158045
#        166929
#        180076
#        188850
#        202655
#        211983
#        226162
#        235653
#        248140
#        260728
#        272180
#
# Disc length: 3790 seconds
#
# Revision: 3
# Processed by: cddbd v1.5.1PL2 Copyright (c) Steve Scherf et al.
# Submitted via: ExactAudioCopy v0.90b4
#
DISCID=4a0ecc19
DTITLE=Maddox Brothers And Rose - The Most Colorful Hillbilly Band In 
DTITLE=America - CD4
DYEAR=1998
DGENRE=Country
TTITLE0=Take A Gamble On Me
TTITLE1=Tomorrow Land
TTITLE2=Old Man Blues
TTITLE3=1-2-3-4 Anyplace Road (Somewhere U.S.A.)
TTITLE4=Love Is Strange
TTITLE5=A Short Life And Its Troubles
TTITLE6=My Life With You
TTITLE7=Dig A Hole
TTITLE8=Let Me Love You
TTITLE9=The Donkey Song
TTITLE10=Stop Whistlin' Wolf
TTITLE11=The Way With God Is So Beautiful
TTITLE12=Keep On Talking (Tell Him Everything)(1)
TTITLE13=Precious Memories
TTITLE14=I Saw The Light
TTITLE15=Someone To Care
TTITLE16=Dear Lord Take My Hand
TTITLE17=He Leadeth Me
TTITLE18=Keep On Talking (Tell Him Everything)(2)
TTITLE19=How Can You Refuse Him Now
TTITLE20=No One Knows (What Faith Can Do)
TTITLE21=Take My Hand, Precious Lord
TTITLE22=Swing Low, Sweet Chariot
TTITLE23=Just Over The Stars
TTITLE24=Bringing In The Sheaves
EXTD=
EXTT0=
EXTT1=
EXTT2=
EXTT3=
EXTT4=
EXTT5=
EXTT6=
EXTT7=
EXTT8=
EXTT9=
EXTT10=
EXTT11=
EXTT12=
EXTT13=
EXTT14=
EXTT15=
EXTT16=
EXTT17=
EXTT18=
EXTT19=
EXTT20=
EXTT21=
EXTT22=
EXTT23=
EXTT24=
PLAYORDER=
